<svg width="1604" height="1111" viewBox="0 0 1604 1111" fill="none" xmlns="http://www.w3.org/2000/svg">
<path d="M1115.99 488.115C1079.88 447.537 1022.64 437.49 975.526 458.656L878.914 350.082C865.63 335.153 842.781 333.832 827.852 347.116L705.265 456.156C660.947 429.659 602.915 433.019 562.349 469.116C521.771 505.224 511.702 562.461 532.858 609.568L438.796 693.267L359.282 603.977C385.791 559.627 382.452 501.619 346.335 461.029C301.8 410.98 224.842 406.483 174.77 451.038C124.733 495.563 120.235 572.521 164.78 622.581C200.898 663.171 258.136 673.239 305.232 652.072L408.793 768.408C422.077 783.338 444.948 784.66 459.877 771.376L580.951 663.64C625.291 690.138 683.322 686.8 723.9 650.692C764.466 614.595 774.536 557.336 753.359 510.228L848.911 425.224L921.465 506.761C894.979 551.091 898.33 609.089 934.437 649.667C978.982 699.727 1055.94 704.225 1105.98 659.7C1156.03 615.144 1160.54 538.175 1115.99 488.115ZM218.83 574.486C200.813 554.237 202.628 523.096 222.865 505.088C243.114 487.071 274.267 488.876 292.285 509.124C310.302 529.373 308.475 560.525 288.227 578.543C267.99 596.55 236.848 594.734 218.83 574.486ZM606.398 592.574C588.37 572.314 590.184 541.194 610.444 523.166C630.693 505.149 661.824 506.952 679.852 527.213C697.88 547.473 696.054 578.603 675.806 596.621C655.546 614.648 624.426 612.834 606.398 592.574ZM988.487 601.572C970.469 581.323 972.283 550.203 992.52 532.196C1012.77 514.178 1043.91 515.972 1061.93 536.22C1079.95 556.469 1078.13 587.633 1057.88 605.65C1037.65 623.636 1006.5 621.82 988.487 601.572Z" fill="#FFBB70"/>
<path d="M18.9479 395V215.8H40.4519V296.952L115.204 215.8H142.34L75.7799 287.224L143.364 395H117.252L60.4199 303.864L40.4519 325.112V395H18.9479ZM179.724 239.864C175.457 239.864 171.873 238.498 168.972 235.768C166.241 232.866 164.876 229.282 164.876 225.016C164.876 220.92 166.241 217.506 168.972 214.776C171.873 212.045 175.457 210.68 179.724 210.68C183.82 210.68 187.319 212.045 190.22 214.776C193.121 217.506 194.572 220.92 194.572 225.016C194.572 229.282 193.121 232.866 190.22 235.768C187.319 238.498 183.82 239.864 179.724 239.864ZM168.972 395V268.024H190.476V395H168.972ZM219.214 395V377.336L289.87 285.944H220.494V268.024H313.934V285.688L243.278 377.08H315.214V395H219.214ZM390.004 398.072C374.985 398.072 363.039 393.549 354.164 384.504C345.289 375.288 340.852 361.208 340.852 342.264V268.024H362.356V339.96C362.356 366.413 373.193 379.64 394.868 379.64C405.961 379.64 415.092 375.714 422.26 367.864C429.599 359.842 433.268 348.493 433.268 333.816V268.024H454.772V395H435.316L433.78 372.216C429.855 380.237 423.967 386.552 416.116 391.16C408.436 395.768 399.732 398.072 390.004 398.072ZM490.168 395V268.024H509.624L510.904 290.808C515 282.786 520.888 276.472 528.568 271.864C536.248 267.256 544.952 264.952 554.68 264.952C569.699 264.952 581.645 269.56 590.52 278.776C599.565 287.821 604.088 301.816 604.088 320.76V395H582.584V323.064C582.584 296.61 571.661 283.384 549.816 283.384C538.893 283.384 529.763 287.394 522.424 295.416C515.256 303.266 511.672 314.53 511.672 329.208V395H490.168ZM678.908 398.072C668.327 398.072 659.537 396.28 652.54 392.696C645.543 389.112 640.337 384.333 636.924 378.36C633.511 372.386 631.804 365.901 631.804 358.904C631.804 345.933 636.753 335.949 646.652 328.952C656.551 321.954 670.033 318.456 687.1 318.456H721.404V316.92C721.404 305.826 718.503 297.464 712.7 291.832C706.897 286.029 699.132 283.128 689.404 283.128C681.041 283.128 673.788 285.261 667.644 289.528C661.671 293.624 657.916 299.682 656.38 307.704H634.364C635.217 298.488 638.289 290.722 643.58 284.408C649.041 278.093 655.783 273.314 663.804 270.072C671.825 266.658 680.359 264.952 689.404 264.952C707.153 264.952 720.465 269.73 729.34 279.288C738.385 288.674 742.908 301.218 742.908 316.92V395H723.708L722.428 372.216C718.844 379.384 713.553 385.528 706.556 390.648C699.729 395.597 690.513 398.072 678.908 398.072ZM682.236 379.896C690.428 379.896 697.425 377.762 703.228 373.496C709.201 369.229 713.724 363.682 716.796 356.856C719.868 350.029 721.404 342.861 721.404 335.352V335.096H688.892C676.263 335.096 667.303 337.314 662.012 341.752C656.892 346.018 654.332 351.394 654.332 357.88C654.332 364.536 656.721 369.912 661.5 374.008C666.449 377.933 673.361 379.896 682.236 379.896Z" fill="black"/>
<path d="M665.536 827.072C647.957 827.072 632.768 823.232 619.968 815.552C607.339 807.701 597.525 796.864 590.528 783.04C583.531 769.045 580.032 752.832 580.032 734.4C580.032 716.139 583.531 700.096 590.528 686.272C597.525 672.277 607.339 661.355 619.968 653.504C632.768 645.653 647.957 641.728 665.536 641.728C686.016 641.728 702.656 646.677 715.456 656.576C728.427 666.304 736.704 679.957 740.288 697.536H716.48C713.749 686.443 708.117 677.568 699.584 670.912C691.221 664.085 679.872 660.672 665.536 660.672C652.736 660.672 641.557 663.659 632 669.632C622.443 675.435 615.019 683.883 609.728 694.976C604.608 705.899 602.048 719.04 602.048 734.4C602.048 749.76 604.608 762.987 609.728 774.08C615.019 785.003 622.443 793.451 632 799.424C641.557 805.227 652.736 808.128 665.536 808.128C679.872 808.128 691.221 804.885 699.584 798.4C708.117 791.744 713.749 782.955 716.48 772.032H740.288C736.704 789.269 728.427 802.752 715.456 812.48C702.656 822.208 686.016 827.072 665.536 827.072ZM812.154 827.072C801.573 827.072 792.783 825.28 785.786 821.696C778.789 818.112 773.583 813.333 770.17 807.36C766.757 801.387 765.05 794.901 765.05 787.904C765.05 774.933 769.999 764.949 779.898 757.952C789.797 750.955 803.279 747.456 820.346 747.456H854.65V745.92C854.65 734.827 851.749 726.464 845.946 720.832C840.143 715.029 832.378 712.128 822.65 712.128C814.287 712.128 807.034 714.261 800.89 718.528C794.917 722.624 791.162 728.683 789.626 736.704H767.61C768.463 727.488 771.535 719.723 776.826 713.408C782.287 707.093 789.029 702.315 797.05 699.072C805.071 695.659 813.605 693.952 822.65 693.952C840.399 693.952 853.711 698.731 862.586 708.288C871.631 717.675 876.154 730.219 876.154 745.92V824H856.954L855.674 801.216C852.09 808.384 846.799 814.528 839.802 819.648C832.975 824.597 823.759 827.072 812.154 827.072ZM815.482 808.896C823.674 808.896 830.671 806.763 836.474 802.496C842.447 798.229 846.97 792.683 850.042 785.856C853.114 779.029 854.65 771.861 854.65 764.352V764.096H822.138C809.509 764.096 800.549 766.315 795.258 770.752C790.138 775.019 787.578 780.395 787.578 786.88C787.578 793.536 789.967 798.912 794.746 803.008C799.695 806.933 806.607 808.896 815.482 808.896ZM955.09 824C943.485 824 934.354 821.184 927.698 815.552C921.042 809.92 917.714 799.765 917.714 785.088V715.2H895.698V697.024H917.714L920.53 666.56H939.218V697.024H976.594V715.2H939.218V785.088C939.218 793.109 940.839 798.571 944.082 801.472C947.325 804.203 953.042 805.568 961.234 805.568H974.546V824H955.09ZM1057.5 827.072C1045.38 827.072 1034.63 824.341 1025.25 818.88C1015.86 813.248 1008.44 805.483 1002.97 795.584C997.683 785.685 995.038 773.995 995.038 760.512C995.038 747.2 997.683 735.595 1002.97 725.696C1008.26 715.627 1015.6 707.861 1024.99 702.4C1034.55 696.768 1045.56 693.952 1058.01 693.952C1070.3 693.952 1080.88 696.768 1089.76 702.4C1098.8 707.861 1105.72 715.115 1110.49 724.16C1115.27 733.205 1117.66 742.933 1117.66 753.344C1117.66 755.221 1117.58 757.099 1117.41 758.976C1117.41 760.853 1117.41 762.987 1117.41 765.376H1016.29C1016.8 775.104 1019.02 783.211 1022.94 789.696C1027.04 796.011 1032.07 800.789 1038.05 804.032C1044.19 807.275 1050.68 808.896 1057.5 808.896C1066.38 808.896 1073.8 806.848 1079.77 802.752C1085.75 798.656 1090.1 793.109 1092.83 786.112H1114.08C1110.66 797.888 1104.09 807.701 1094.37 815.552C1084.81 823.232 1072.52 827.072 1057.5 827.072ZM1057.5 712.128C1047.26 712.128 1038.13 715.285 1030.11 721.6C1022.26 727.744 1017.74 736.789 1016.54 748.736H1096.41C1095.9 737.301 1091.98 728.341 1084.64 721.856C1077.3 715.371 1068.25 712.128 1057.5 712.128ZM1146.16 824V697.024H1165.62L1167.41 721.344C1171.34 712.981 1177.31 706.325 1185.33 701.376C1193.35 696.427 1203.25 693.952 1215.03 693.952V716.48H1209.14C1201.63 716.48 1194.72 717.845 1188.4 720.576C1182.09 723.136 1177.05 727.573 1173.3 733.888C1169.55 740.203 1167.67 748.907 1167.67 760V824H1146.16ZM1252.22 668.864C1247.95 668.864 1244.37 667.499 1241.47 664.768C1238.74 661.867 1237.37 658.283 1237.37 654.016C1237.37 649.92 1238.74 646.507 1241.47 643.776C1244.37 641.045 1247.95 639.68 1252.22 639.68C1256.32 639.68 1259.81 641.045 1262.72 643.776C1265.62 646.507 1267.07 649.92 1267.07 654.016C1267.07 658.283 1265.62 661.867 1262.72 664.768C1259.81 667.499 1256.32 668.864 1252.22 668.864ZM1241.47 824V697.024H1262.97V824H1241.47ZM1300.41 824V697.024H1319.87L1321.15 719.808C1325.25 711.787 1331.13 705.472 1338.81 700.864C1346.49 696.256 1355.2 693.952 1364.93 693.952C1379.94 693.952 1391.89 698.56 1400.77 707.776C1409.81 716.821 1414.33 730.816 1414.33 749.76V824H1392.83V752.064C1392.83 725.611 1381.91 712.384 1360.06 712.384C1349.14 712.384 1340.01 716.395 1332.67 724.416C1325.5 732.267 1321.92 743.531 1321.92 758.208V824H1300.41ZM1497.09 784.064C1489.92 784.064 1483.35 783.125 1477.38 781.248L1464.58 793.28C1466.46 794.645 1468.76 795.84 1471.49 796.864C1474.39 797.717 1478.49 798.571 1483.78 799.424C1489.07 800.107 1496.49 800.875 1506.05 801.728C1523.12 802.923 1535.32 806.848 1542.66 813.504C1550 820.16 1553.67 828.864 1553.67 839.616C1553.67 846.955 1551.62 853.952 1547.52 860.608C1543.6 867.264 1537.45 872.725 1529.09 876.992C1520.9 881.259 1510.32 883.392 1497.35 883.392C1485.91 883.392 1475.76 881.856 1466.88 878.784C1458.01 875.883 1451.1 871.36 1446.15 865.216C1441.2 859.243 1438.72 851.648 1438.72 842.432C1438.72 837.653 1440 832.448 1442.56 826.816C1445.12 821.355 1449.9 816.149 1456.9 811.2C1453.14 809.664 1449.9 808.043 1447.17 806.336C1444.61 804.459 1442.22 802.411 1440 800.192V794.304L1461.76 772.8C1451.69 764.267 1446.66 753.003 1446.66 739.008C1446.66 730.645 1448.62 723.051 1452.55 716.224C1456.47 709.397 1462.19 704.021 1469.7 700.096C1477.21 696 1486.34 693.952 1497.09 693.952C1504.43 693.952 1511.08 694.976 1517.06 697.024H1563.91V713.152L1540.1 714.176C1545.05 721.344 1547.52 729.621 1547.52 739.008C1547.52 747.371 1545.47 754.965 1541.38 761.792C1537.45 768.619 1531.74 774.08 1524.23 778.176C1516.89 782.101 1507.84 784.064 1497.09 784.064ZM1497.09 766.4C1506.14 766.4 1513.3 764.096 1518.59 759.488C1524.06 754.709 1526.79 747.883 1526.79 739.008C1526.79 730.304 1524.06 723.648 1518.59 719.04C1513.3 714.261 1506.14 711.872 1497.09 711.872C1487.87 711.872 1480.54 714.261 1475.07 719.04C1469.78 723.648 1467.14 730.304 1467.14 739.008C1467.14 747.883 1469.78 754.709 1475.07 759.488C1480.54 764.096 1487.87 766.4 1497.09 766.4ZM1459.71 840.384C1459.71 848.917 1463.3 855.232 1470.47 859.328C1477.63 863.595 1486.59 865.728 1497.35 865.728C1507.93 865.728 1516.38 863.424 1522.69 858.816C1529.18 854.208 1532.42 848.064 1532.42 840.384C1532.42 834.923 1530.2 830.144 1525.76 826.048C1521.32 822.123 1513.13 819.819 1501.19 819.136C1491.8 818.453 1483.69 817.6 1476.87 816.576C1469.87 820.331 1465.26 824.341 1463.04 828.608C1460.82 833.045 1459.71 836.971 1459.71 840.384Z" fill="black"/>
</svg>
