<svg xmlns="http://www.w3.org/2000/svg" version="1.1" xmlns:xlink="http://www.w3.org/1999/xlink" xmlns:svgjs="http://svgjs.dev/svgjs" viewBox="0 0 1422 800"><circle r="26" cx="768" cy="559" stroke-width="2" stroke="hsl(360, 50%, 50%)" fill="none" opacity="0.98"></circle><circle r="54.5" cx="1335" cy="93" stroke-width="2" stroke="hsl(360, 50%, 50%)" fill="none" opacity="0.46"></circle><circle r="15.5" cx="871" cy="473" stroke-width="2" stroke="hsl(360, 50%, 50%)" fill="none" opacity="0.25"></circle><circle r="36.5" cx="1238" cy="541" stroke-width="2" stroke="hsl(360, 50%, 50%)" fill="none" opacity="0.76"></circle><circle r="34" cx="875" cy="299" stroke-width="2" stroke="hsl(360, 50%, 50%)" fill="none" opacity="0.76"></circle><circle r="28" cx="1265" cy="662" stroke-width="2" stroke="hsl(360, 50%, 50%)" fill="none" opacity="0.70"></circle><circle r="33" cx="517" cy="210" stroke-width="2" stroke="hsl(360, 50%, 50%)" fill="none" opacity="0.78"></circle><circle r="23.5" cx="49" cy="159" stroke-width="2" stroke="hsl(360, 50%, 50%)" fill="none" opacity="0.16"></circle><circle r="39" cx="712" cy="237" stroke-width="2" stroke="hsl(360, 50%, 50%)" fill="none" opacity="0.10"></circle><circle r="39" cx="99" cy="406" stroke-width="2" stroke="hsl(360, 50%, 50%)" fill="none" opacity="0.80"></circle><circle r="27.5" cx="692" cy="672" stroke-width="2" stroke="hsl(360, 50%, 50%)" fill="none" opacity="0.51"></circle><circle r="29" cx="83" cy="731" stroke-width="2" stroke="hsl(360, 50%, 50%)" fill="none" opacity="0.82"></circle><circle r="17.5" cx="917" cy="567" stroke-width="2" stroke="hsl(360, 50%, 50%)" fill="none" opacity="0.60"></circle><circle r="22" cx="412" cy="106" stroke-width="2" stroke="hsl(360, 50%, 50%)" fill="none" opacity="0.73"></circle><circle r="21" cx="656" cy="758" stroke-width="2" stroke="hsl(360, 50%, 50%)" fill="none" opacity="0.89"></circle><circle r="15" cx="860" cy="532" stroke-width="2" stroke="hsl(360, 50%, 50%)" fill="none" opacity="0.53"></circle><circle r="31.5" cx="90" cy="590" stroke-width="2" stroke="hsl(360, 50%, 50%)" fill="none" opacity="0.33"></circle><circle r="23" cx="475" cy="747" stroke-width="2" stroke="hsl(360, 50%, 50%)" fill="none" opacity="0.21"></circle><circle r="34" cx="738" cy="395" stroke-width="2" stroke="hsl(360, 50%, 50%)" fill="none" opacity="0.88"></circle><circle r="31.5" cx="1127" cy="613" stroke-width="2" stroke="hsl(360, 50%, 50%)" fill="none" opacity="0.29"></circle><circle r="42" cx="1340" cy="431" stroke-width="2" stroke="hsl(360, 50%, 50%)" fill="none" opacity="0.48"></circle><circle r="28" cx="489" cy="621" stroke-width="2" stroke="hsl(360, 50%, 50%)" fill="none" opacity="0.53"></circle><circle r="28.5" cx="1006" cy="596" stroke-width="2" stroke="hsl(360, 50%, 50%)" fill="none" opacity="0.81"></circle><circle r="31" cx="867" cy="738" stroke-width="2" stroke="hsl(360, 50%, 50%)" fill="none" opacity="0.34"></circle><circle r="28" cx="1216" cy="271" stroke-width="2" stroke="hsl(360, 50%, 50%)" fill="none" opacity="0.82"></circle><circle r="25.5" cx="840" cy="635" stroke-width="2" stroke="hsl(360, 50%, 50%)" fill="none" opacity="0.34"></circle><circle r="18" cx="243" cy="746" stroke-width="2" stroke="hsl(360, 50%, 50%)" fill="none" opacity="0.66"></circle><circle r="37.5" cx="926" cy="67" stroke-width="2" stroke="hsl(360, 50%, 50%)" fill="none" opacity="0.75"></circle><circle r="29" cx="490" cy="49" stroke-width="2" stroke="hsl(360, 50%, 50%)" fill="none" opacity="0.42"></circle><circle r="26" cx="257" cy="442" stroke-width="2" stroke="hsl(360, 50%, 50%)" fill="none" opacity="0.30"></circle><circle r="19" cx="700" cy="519" stroke-width="2" stroke="hsl(360, 50%, 50%)" fill="none" opacity="0.59"></circle><circle r="16" cx="638" cy="515" stroke-width="2" stroke="hsl(360, 50%, 50%)" fill="none" opacity="0.95"></circle><circle r="45.5" cx="640" cy="66" stroke-width="2" stroke="hsl(360, 50%, 50%)" fill="none" opacity="0.39"></circle><circle r="35.5" cx="402" cy="407" stroke-width="2" stroke="hsl(360, 50%, 50%)" fill="none" opacity="0.45"></circle><circle r="27.5" cx="1138" cy="738" stroke-width="2" stroke="hsl(360, 50%, 50%)" fill="none" opacity="0.43"></circle><circle r="24.5" cx="1249" cy="756" stroke-width="2" stroke="hsl(360, 50%, 50%)" fill="none" opacity="0.28"></circle><circle r="27.5" cx="313" cy="643" stroke-width="2" stroke="hsl(360, 50%, 50%)" fill="none" opacity="0.79"></circle><circle r="30.5" cx="1014" cy="736" stroke-width="2" stroke="hsl(360, 50%, 50%)" fill="none" opacity="0.41"></circle><circle r="30.5" cx="1106" cy="445" stroke-width="2" stroke="hsl(360, 50%, 50%)" fill="none" opacity="0.68"></circle><circle r="37.5" cx="789" cy="114" stroke-width="2" stroke="hsl(360, 50%, 50%)" fill="none" opacity="0.66"></circle><circle r="26" cx="551" cy="520" stroke-width="2" stroke="hsl(360, 50%, 50%)" fill="none" opacity="0.79"></circle><circle r="22" cx="1390" cy="308" stroke-width="2" stroke="hsl(360, 50%, 50%)" fill="none" opacity="0.57"></circle><circle r="21" cx="840" cy="419" stroke-width="2" stroke="hsl(360, 50%, 50%)" fill="none" opacity="0.56"></circle><circle r="34.5" cx="1370" cy="729" stroke-width="2" stroke="hsl(360, 50%, 50%)" fill="none" opacity="0.51"></circle><circle r="27.5" cx="175" cy="159" stroke-width="2" stroke="hsl(360, 50%, 50%)" fill="none" opacity="0.78"></circle><circle r="39.5" cx="576" cy="352" stroke-width="2" stroke="hsl(360, 50%, 50%)" fill="none" opacity="0.60"></circle><circle r="37" cx="1366" cy="572" stroke-width="2" stroke="hsl(360, 50%, 50%)" fill="none" opacity="0.56"></circle><circle r="29.5" cx="1108" cy="239" stroke-width="2" stroke="hsl(360, 50%, 50%)" fill="none" opacity="0.61"></circle><circle r="24" cx="308" cy="136" stroke-width="2" stroke="hsl(360, 50%, 50%)" fill="none" opacity="0.28"></circle><circle r="32" cx="1320" cy="249" stroke-width="2" stroke="hsl(360, 50%, 50%)" fill="none" opacity="0.47"></circle><circle r="39.5" cx="1142" cy="77" stroke-width="2" stroke="hsl(360, 50%, 50%)" fill="none" opacity="0.58"></circle><circle r="34" cx="977" cy="208" stroke-width="2" stroke="hsl(360, 50%, 50%)" fill="none" opacity="0.32"></circle><circle r="30" cx="1215" cy="397" stroke-width="2" stroke="hsl(360, 50%, 50%)" fill="none" opacity="0.44"></circle><circle r="29.5" cx="991" cy="392" stroke-width="2" stroke="hsl(360, 50%, 50%)" fill="none" opacity="0.69"></circle><circle r="17" cx="959" cy="492" stroke-width="2" stroke="hsl(360, 50%, 50%)" fill="none" opacity="0.74"></circle></svg>